# xmcd CD database file generated by freedbAccess_ocx
#
# Track frame offsets:
#       182
#       14672
#       24295
#       40925
#       62147
#       82027
#       98917
#       111650
#       129350
#       143385
#       157260
#       167970
#       182615
#       197195
#       212760
#       227230
#       240787
#       256052
#
# Disc length: 3630 seconds
#
# Revision: 1
# Processed by: cddbd v1.4PL0 Copyright (c) Steve Scherf et al.
# Submitted via: CDnGo 1.95
#
DISCID=f60e2c12
DTITLE=Various Artist - The Complete No 1's Of Country
DYEAR=1997
DGENRE=Country
TTITLE0=The Bellamy Brothers - If I Said You Had A Beautiful Body
TTITLE1=Waylon Jennings - Good Ol' Boys
TTITLE2=Alabama - Touch Me When We're Dancing
TTITLE3=K. T. Oslin - Hold Me
TTITLE4=The Judds - Young Love
TTITLE5=Juice Newton - Hurt
TTITLE6=Willie Nelson - Forgiving You Was Easy
TTITLE7=Dolly Parton - Yellow Roses
TTITLE8=George Strait - Easy Come, Easy Go
TTITLE9=Reba McEntire - Cathy's Clown
TTITLE10=Ricky Van Shelton - From A Jack To A King
TTITLE11=Ronnie Milsap - A Woman In Love
TTITLE12=John Schneider - Country Girls
TTITLE13=Rosanne Cash - Never Be You
TTITLE14=Tanya Tucker - Just Another Love
TTITLE15=The Judds - Let Me Tell You About Love
TTITLE16=Eddie Rabbitt - The Wanderer
TTITLE17=The Charlie Daniels Band - The Devil Went Down To Georgia
EXTD=
EXTT0=
EXTT1=
EXTT2=
EXTT3=
EXTT4=
EXTT5=
EXTT6=
EXTT7=
EXTT8=
EXTT9=
EXTT10=
EXTT11=
EXTT12=
EXTT13=
EXTT14=
EXTT15=
EXTT16=
EXTT17=
PLAYORDER=
